PathFileType	4	(X/Y/Z)	D:\Long Term Storage\D'Arcy Smith\Coord20.trc
DataRate	CameraRate	NumFrames	NumMarkers	Units	OrigDataRate	OrigDataStartFrame	OrigNumFrames
120.00	120.00	      62	4	mm	120.00	4235	      4839
Frame#	Time	M1			M2			M3			M4			
		X1	Y1	Z1	X2	Y2	Z2	X3	Y3	Z3	X4	Y4	Z4	

4235	35.283	600.62238	405.17416	191.78371	841.96503	331.65527	184.77832							
4236	35.292	598.14099	413.88901	167.83249	844.38654	325.61752	201.46057							
4237	35.300	596.04077	423.22150	146.33464	847.05664	320.49298	219.03195							
4238	35.308	593.20856	433.43573	124.81420	849.97168	315.82321	237.54349							
4239	35.317	590.16498	444.34610	105.06803	853.31702	312.01389	256.92532							
4240	35.325	586.95306	455.53186	86.82185	857.18726	308.86792	276.49469							
4241	35.333	583.21863	466.68146	69.24919	861.30463	306.43262	296.58463							
4242	35.342	579.63965	478.55588	53.43014	866.07977	305.14938	317.23529							
4243	35.350	575.64362	490.49002	39.14490	871.14368	304.25964	338.00671							
4244	35.358	571.57495	502.20709	26.24948	876.37872	305.40765	358.70303							
4245	35.367	567.69812	512.96826	15.33850	882.07562	307.18784	379.72852							
4246	35.375	563.78198	523.17004	5.60443	888.26428	310.06061	400.37766							
4247	35.383	560.65961	531.67871	-1.20254	894.67285	313.71790	420.39294							
4248	35.392	557.65344	539.11285	-7.00670	901.46509	318.64951	440.12262							
4249	35.400	554.97961	545.14996	-11.34207	908.45233	324.70218	459.30478							
4250	35.408	553.17200	549.51031	-14.29347	915.34033	331.83133	477.81366							
4251	35.417	551.45636	552.00269	-15.95016	922.53235	339.79169	495.56448							
4252	35.425	550.26166	552.87756	-16.33396	929.75104	349.39587	513.84967							
4253	35.433	549.74298	552.46216	-15.64824	936.98712	359.21484	529.92993							
4254	35.442	549.80157	550.11792	-13.77694	944.35614	369.92084	544.80225							
4255	35.450	550.21002	546.42743	-11.21138	951.44727	381.09613	559.11682							
4256	35.458	551.31329	541.21295	-7.55591	958.84918	393.17624	570.94037							
4257	35.467	552.62262	535.05914	-3.24778	965.71790	405.48721	583.34991							
4258	35.475	554.05658	528.39441	1.79429	972.47900	418.07889	593.95081							
4259	35.483	555.94269	520.25354	7.83021	978.84546	430.94116	603.20142							
4260	35.492	557.99548	511.72287	14.39567	985.17456	443.73871	611.64209							
4261	35.500	559.97479	502.52231	21.30322	990.94043	456.36969	618.87537							
4262	35.508	562.09979	492.67700	28.94444	996.54156	468.76224	624.88550							
4263	35.517	564.08331	482.82617	36.99582	1001.55939	480.55490	628.87067							
4264	35.525	566.30200	471.36752	46.42645	1006.29852	491.96042	632.82275							
4265	35.533	568.54901	460.21497	55.96380	1010.35742	503.11743	636.82782							
4266	35.542	570.80823	448.82764	66.40810	1014.08490	513.87067	640.01257							
4267	35.550	572.97388	437.19189	76.83667	1017.46204	524.31799	642.41174							
4268	35.558	575.42395	425.03522	90.81966	1020.06079	533.62817	644.50848							
4269	35.567	577.64380	413.03784	103.74989	1022.54724	542.57434	646.57501							
4270	35.575	579.70935	400.84467	118.10029	1023.94238	549.89478	647.68341							
4271	35.583	581.98993	389.19305	133.09039	1025.15637	557.33258	649.74133							
4272	35.592	583.63306	376.77454	150.06187	1025.58704	563.59680	650.37573							
4273	35.600	585.67163	366.00543	167.63963	1025.80164	569.02679	652.03204							
4274	35.608	587.18457	355.31293	186.38701	1025.31238	573.77509	651.50952							
4275	35.617	588.27673	345.42703	206.04646	1024.57141	577.72021	652.40814							
4276	35.625	589.19702	336.28436	226.31960	1023.58466	580.98737	653.44354							
4277	35.633	589.92914	328.70142	249.30600	1022.07642	583.42200	653.83191							
4278	35.642	590.14502	321.46335	272.59598	1020.71429	585.41083	655.61072							
4279	35.650	589.89423	315.94595	295.76642	1018.48212	586.12335	655.49908							
4280	35.658	589.56689	311.95502	321.30093	1015.52765	585.86200	654.75330							
4281	35.667	588.90363	309.58401	346.32388	1013.28833	585.28723	655.57513							
4282	35.675	588.07214	308.95300	372.41821	1009.67969	583.34985	654.07068							
4283	35.683	586.55450	309.99976	397.13184	1006.67505	579.83887	652.74115							
4284	35.692	584.77478	312.70840	422.59253	1003.43915	576.90637	652.55389							
4285	35.700	583.15717	317.37775	448.53424	999.63696	572.71973	650.64069							
4286	35.708	580.74091	323.57642	472.71878	994.62830	567.33325	648.65106							
4287	35.717	578.28986	331.49365	496.96088	990.58868	561.32935	645.75793							
4288	35.725	575.51227	340.70105	519.41504	986.10571	554.31372	643.11578							
4289	35.733	572.69714	351.33514	541.04645	981.15985	547.83643	639.35217							
4290	35.742	569.71722	362.91470	561.40039	976.43127	538.94263	632.75134							
4291	35.750	566.38586	375.79477	579.43604	972.62494	529.70886	627.09015							
4292	35.758	563.03265	389.16574	597.37939	967.52551	519.98883	619.66632							
4293	35.767	560.30438	403.53827	612.95728	963.18457	509.88647	612.12903							
4294	35.775	557.65662	418.00470	627.54218	958.06384	499.09732	602.57672							
4295	35.783	554.74341	432.70056	639.99194	953.45947	487.68857	594.47858							
4296	35.792	552.02039	447.06689	650.99023	948.36261	475.32721	582.47351							
